<svg xmlns="http://www.w3.org/2000/svg" viewBox="0 0 295.76 112.9"><defs><style>.cls-1,.cls-4{fill:#3fa9f5;}.cls-2{fill:none;}.cls-2,.cls-4,.cls-5{stroke:#ff5d00;stroke-miterlimit:10;}.cls-2,.cls-4{stroke-width:2px;}.cls-3,.cls-5{fill:#fff;}</style></defs><title>bb_logo</title><g id="Layer_2" data-name="Layer 2"><g id="Layer_1-2" data-name="Layer 1"><path class="cls-1" d="M111.9,53.7a21.8,21.8,0,0,1-.34,3.83.54.54,0,0,1-.52.52c-1.66.28-3.3.59-5,.89l-3.41.63c-.51,3.06-1,6-1.52,9l.36.22,6.89,4.09c.23.14.44.22.37.6a24.18,24.18,0,0,1-5,11.28.78.78,0,0,1-1,.28c-2.49-.92-5-1.8-7.49-2.72a.54.54,0,0,0-.73.25c-1.54,1.92-3.1,3.84-4.65,5.75a11.1,11.1,0,0,1-.82.86c1.42,2.52,2.81,5,4.22,7.51a.5.5,0,0,1,0,.69,24.15,24.15,0,0,1-10,7.26.72.72,0,0,1-1-.23c-1.71-2.07-3.46-4.08-5.18-6.14a.55.55,0,0,0-.8-.17,42.17,42.17,0,0,1-7.44,2.78.65.65,0,0,0-.59.76c0,2.64-.06,5.29-.06,7.93a.68.68,0,0,1-.59.77c-1.16.32-2.31.71-3.48,1s-2.26.39-3.39.57H57.81c-.81-.12-1.6-.25-2.4-.34-.36,0-.5-.19-.56-.56-.48-2.66-1-5.33-1.45-8-.06-.36-.17-.5-.56-.52a21.11,21.11,0,0,1-2.52-.28c-2-.33-4-.72-6-1.09-.07.11-.19.28-.29.46-1.24,2.07-2.46,4.15-3.69,6.22-.62,1.06-.62,1.06-1.81.81A23.66,23.66,0,0,1,28,103.68a.62.62,0,0,1-.21-.86c.25-.58.43-1.2.65-1.81.74-2.07,1.48-4.13,2.18-6.1l-7.07-5.82-7.38,4.16c-.24.14-.42.21-.68,0a24,24,0,0,1-7.3-10.1.6.6,0,0,1,.2-.81c2.07-1.73,4.11-3.49,6.19-5.22a.58.58,0,0,0,.17-.84A42,42,0,0,1,12,68.82a.59.59,0,0,0-.69-.52c-2.7,0-5.39-.07-8.09-.11-.28,0-.48,0-.6-.34A25.24,25.24,0,0,1,1,59.22a21.36,21.36,0,0,1,.31-3.71c.07-.47.28-.6.7-.68,2.65-.46,5.31-1,8-1.43.34-.06.41-.21.44-.52.2-1.61.39-3.21.64-4.81.21-1.24.53-2.46.79-3.7l-.6-.36C9,42.67,6.73,41.35,4.48,40c-.21-.13-.44-.21-.38-.59a24.24,24.24,0,0,1,5-11.24.84.84,0,0,1,1.12-.33c2.48.92,5,1.78,7.44,2.69a.56.56,0,0,0,.78-.26c.69-1,1.39-2,2.15-2.89,1.05-1.27,2.16-2.48,3.27-3.73-1.45-2.6-2.93-5.22-4.41-7.86A23.83,23.83,0,0,1,29.86,8.17a.53.53,0,0,1,.67.22L32.76,11,36.1,15a2.48,2.48,0,0,0,.27-.08A45.13,45.13,0,0,1,44.19,12c.35-.09.41-.27.41-.59,0-2.72.08-5.43.09-8.15a.58.58,0,0,1,.41-.63A25.16,25.16,0,0,1,53.66,1a22.31,22.31,0,0,1,3.79.33.62.62,0,0,1,.6.59c.46,2.67,1,5.33,1.44,8,0,.34.17.45.52.5,1.82.23,3.63.47,5.43.76,1,.17,2,.44,3.09.67C70,9.38,71.45,6.93,72.89,4.48a.54.54,0,0,1,.65-.34A24.16,24.16,0,0,1,84.86,9.2a.66.66,0,0,1,.23.86c-.91,2.5-1.79,5-2.69,7.49a.62.62,0,0,0,.25.88c1.88,1.48,3.73,3,5.58,4.52.34.28.65.61,1,.92l7.46-4.2c.26-.14.45-.26.74,0a24,24,0,0,1,7.28,10,.64.64,0,0,1-.22.86c-2.07,1.73-4.11,3.49-6.19,5.22a.55.55,0,0,0-.16.8A41.15,41.15,0,0,1,100.91,44c.13.46.32.57.77.59,2.66,0,5.32,0,8,.07.29,0,.52,0,.66.37A25.48,25.48,0,0,1,111.9,53.7ZM87,56.51A30.53,30.53,0,1,0,56.39,87,30.6,30.6,0,0,0,87,56.51Z"/><path class="cls-2" d="M60.75,111.9H57.81"/><path class="cls-2" d="M60.75,111.9c1.13-.18,2.28-.31,3.39-.57s2.32-.65,3.48-1a.68.68,0,0,0,.59-.77c0-2.64.06-5.29.06-7.93a.65.65,0,0,1,.59-.76,42.17,42.17,0,0,0,7.44-2.78.55.55,0,0,1,.8.17c1.72,2.06,3.47,4.07,5.18,6.14a.72.72,0,0,0,1,.23,24.15,24.15,0,0,0,10-7.26.5.5,0,0,0,0-.69c-1.41-2.49-2.8-5-4.22-7.51a11.1,11.1,0,0,0,.82-.86c1.55-1.91,3.11-3.83,4.65-5.75a.54.54,0,0,1,.73-.25c2.5.92,5,1.8,7.49,2.72a.78.78,0,0,0,1-.28,24.18,24.18,0,0,0,5-11.28c.07-.38-.14-.46-.37-.6l-6.89-4.09-.36-.22c.5-3,1-6,1.52-9l3.41-.63c1.65-.3,3.29-.61,5-.89a.54.54,0,0,0,.52-.52,21.8,21.8,0,0,0,.34-3.83,25.48,25.48,0,0,0-1.59-8.63c-.14-.37-.37-.37-.66-.37-2.65,0-5.31-.07-8-.07-.45,0-.64-.13-.77-.59a41.15,41.15,0,0,0-2.79-7.44.55.55,0,0,1,.16-.8c2.08-1.73,4.12-3.49,6.19-5.22a.64.64,0,0,0,.22-.86,24,24,0,0,0-7.28-10c-.29-.26-.48-.14-.74,0l-7.46,4.2c-.33-.31-.64-.64-1-.92-1.85-1.52-3.7-3-5.58-4.52a.62.62,0,0,1-.25-.88c.9-2.49,1.78-5,2.69-7.49a.66.66,0,0,0-.23-.86A24.16,24.16,0,0,0,73.54,4.14a.54.54,0,0,0-.65.34c-1.44,2.45-2.9,4.9-4.36,7.37-1-.23-2.06-.5-3.09-.67-1.8-.29-3.61-.53-5.43-.76-.35-.05-.47-.16-.52-.5-.47-2.67-1-5.33-1.44-8a.62.62,0,0,0-.6-.59A22.31,22.31,0,0,0,53.66,1,25.16,25.16,0,0,0,45.1,2.58a.58.58,0,0,0-.41.63c0,2.72-.06,5.43-.09,8.15,0,.32-.06.5-.41.59a45.13,45.13,0,0,0-7.82,2.93,2.48,2.48,0,0,1-.27.08L32.76,11,30.53,8.39a.53.53,0,0,0-.67-.22A23.83,23.83,0,0,0,19.43,15.8c1.48,2.64,3,5.26,4.41,7.86-1.11,1.25-2.22,2.46-3.27,3.73-.76.93-1.46,1.91-2.15,2.89a.56.56,0,0,1-.78.26c-2.48-.91-5-1.77-7.44-2.69a.84.84,0,0,0-1.12.33,24.24,24.24,0,0,0-5,11.24c-.06.38.17.46.38.59,2.25,1.34,4.51,2.66,6.75,4l.6.36c-.26,1.24-.58,2.46-.79,3.7-.25,1.6-.44,3.2-.64,4.81,0,.31-.1.46-.44.52-2.64.46-5.3,1-8,1.43-.42.08-.63.21-.7.68A21.36,21.36,0,0,0,1,59.22a25.24,25.24,0,0,0,1.59,8.63c.12.33.32.34.6.34,2.7,0,5.39.09,8.09.11a.59.59,0,0,1,.69.52,42,42,0,0,0,2.79,7.45.58.58,0,0,1-.17.84c-2.08,1.73-4.12,3.49-6.19,5.22a.6.6,0,0,0-.2.81,24,24,0,0,0,7.3,10.1c.26.22.44.15.68,0l7.38-4.16,7.07,5.82c-.7,2-1.44,4-2.18,6.1-.22.61-.4,1.23-.65,1.81a.62.62,0,0,0,.21.86,23.66,23.66,0,0,0,10.53,4.92c1.19.25,1.19.25,1.81-.81,1.23-2.07,2.45-4.15,3.69-6.22.1-.18.22-.35.29-.46,2,.37,4,.76,6,1.09a21.11,21.11,0,0,0,2.52.28c.39,0,.5.16.56.52.48,2.67,1,5.34,1.45,8,.06.37.2.53.56.56.8.09,1.59.22,2.4.34"/><path class="cls-3" d="M27.49,39.39c-.48-.27-.87,0-.87.5v33a1.91,1.91,0,0,0,.87,1.5l28.58,16.5a1.89,1.89,0,0,0,1.73,0l28.58-16.5a1.92,1.92,0,0,0,.86-1.5v-33c0-.55-.39-.77-.86-.5L57.8,55.89a1.89,1.89,0,0,1-1.73,0Z"/><path class="cls-2" d="M27.49,39.39c-.48-.27-.87,0-.87.5v33a1.91,1.91,0,0,0,.87,1.5l28.58,16.5a1.89,1.89,0,0,0,1.73,0l28.58-16.5a1.92,1.92,0,0,0,.86-1.5v-33c0-.55-.39-.77-.86-.5L57.8,55.89a1.89,1.89,0,0,1-1.73,0Z"/><path class="cls-3" d="M27.49,38.39c-.48.28-.48.73,0,1l28.58,16.5a1.89,1.89,0,0,0,1.73,0l28.58-16.5a.53.53,0,0,0,0-1L57.8,21.89a2,2,0,0,0-1.73,0Z"/><path class="cls-2" d="M27.49,38.39c-.48.28-.48.73,0,1l28.58,16.5a1.89,1.89,0,0,0,1.73,0l28.58-16.5a.53.53,0,0,0,0-1L57.8,21.89a2,2,0,0,0-1.73,0Z"/><line class="cls-4" x1="56.93" y1="56.39" x2="56.93" y2="91.39"/><path class="cls-5" d="M145.36,66.08a7.84,7.84,0,0,1,1.56,4.82q0,5.38-3.53,7.9a14.77,14.77,0,0,1-8.81,2.52H122.82V46h10.37c3.74,0,6.69.76,8.83,2.28a7.6,7.6,0,0,1,3.22,6.6,9.33,9.33,0,0,1-1.11,4.63A8.33,8.33,0,0,1,141,62.7,11.13,11.13,0,0,1,145.36,66.08Zm-15.58-5.64H134a3.78,3.78,0,0,0,3-1.18,4.2,4.2,0,0,0,1.06-2.9,3.23,3.23,0,0,0-1.2-2.71,5.24,5.24,0,0,0-3.32-.94h-3.74Zm8.42,13.42a3.3,3.3,0,0,0,1.52-3q0-3.74-6-3.74h-4v7.68h4.46A7.17,7.17,0,0,0,138.2,73.86Z"/><path class="cls-5" d="M159.49,43.45V81.32h-6.72V43.45Z"/><path class="cls-5" d="M166.28,64.81a10.69,10.69,0,0,1,4.28-4,13.06,13.06,0,0,1,6.26-1.46A12.59,12.59,0,0,1,183,60.8a10.34,10.34,0,0,1,4.1,4,11.45,11.45,0,0,1,1.44,5.76,11.78,11.78,0,0,1-1.44,5.81,10.25,10.25,0,0,1-4.1,4.05,12.8,12.8,0,0,1-6.27,1.47,13.61,13.61,0,0,1-6.21-1.37,10.12,10.12,0,0,1-4.23-3.91,11.73,11.73,0,0,1-1.51-6.05A11.1,11.1,0,0,1,166.28,64.81Zm6.7,10a4.64,4.64,0,0,0,3.65,1.65,4.7,4.7,0,0,0,3.72-1.63,6.89,6.89,0,0,0,0-8.35,4.7,4.7,0,0,0-3.72-1.63A4.64,4.64,0,0,0,173,66.46a6.71,6.71,0,0,0,0,8.31Z"/><path class="cls-5" d="M208.14,81.22a13.29,13.29,0,0,1-4.1.68q-5.47,0-8.67-3a10.51,10.51,0,0,1-3.19-8.13,10.94,10.94,0,0,1,1.56-5.88,10.42,10.42,0,0,1,4.1-3.84,11.73,11.73,0,0,1,5.48-1.32,12.65,12.65,0,0,1,8.49,2.78l-3.26,4.32a7.24,7.24,0,0,0-4.61-1.63,4.71,4.71,0,0,0-3.58,1.58,5.69,5.69,0,0,0-1.46,4,5.82,5.82,0,0,0,9.36,4.41l3.36,4.23A10.94,10.94,0,0,1,208.14,81.22Z"/><path class="cls-5" d="M236.51,60.61a9.51,9.51,0,0,1,3.62,3.81,12.37,12.37,0,0,1,1.35,6A12.11,12.11,0,0,1,240,76.45a10.51,10.51,0,0,1-4,4,10.83,10.83,0,0,1-5.42,1.42,9.77,9.77,0,0,1-7.06-2.69v2.11H216.8V43.45h6.68V61.78a10.91,10.91,0,0,1,3.4-1.8,14.49,14.49,0,0,1,4.61-.69A9.86,9.86,0,0,1,236.51,60.61Zm-4.66,14.85a5.65,5.65,0,0,0,2-2.13,6,6,0,0,0,.77-3A5.62,5.62,0,0,0,233,66.2a5.36,5.36,0,0,0-3.94-1.63,6.44,6.44,0,0,0-3.45.91,5,5,0,0,0-2.12,2.45v5.13a5.89,5.89,0,0,0,5.57,3.17A5.18,5.18,0,0,0,231.85,75.46Z"/><path class="cls-5" d="M246.63,64.81a10.69,10.69,0,0,1,4.28-4,13.09,13.09,0,0,1,6.26-1.46,12.56,12.56,0,0,1,6.17,1.46,10.34,10.34,0,0,1,4.1,4,11.45,11.45,0,0,1,1.44,5.76,11.78,11.78,0,0,1-1.44,5.81,10.25,10.25,0,0,1-4.1,4.05,12.8,12.8,0,0,1-6.27,1.47,13.64,13.64,0,0,1-6.21-1.37,10.12,10.12,0,0,1-4.23-3.91,11.73,11.73,0,0,1-1.51-6.05A11.1,11.1,0,0,1,246.63,64.81Zm6.7,10A4.64,4.64,0,0,0,257,76.42a4.7,4.7,0,0,0,3.72-1.63,6.89,6.89,0,0,0,0-8.35A4.7,4.7,0,0,0,257,64.81a4.64,4.64,0,0,0-3.65,1.65,6.71,6.71,0,0,0,0,8.31Z"/><path class="cls-5" d="M286.64,81.32,281.79,75l-4.41,6.29h-6.67l7.77-10.56-8-10.42h8.25l4.61,6,3.6-6h6.67l-7.2,10,8.35,10.94Z"/></g></g></svg>