<svg xmlns="http://www.w3.org/2000/svg" viewBox="0 0 328 148"><defs><style>.cls-1{fill:#004167;}.cls-2,.cls-5{fill:#3fa9f5;}.cls-3{fill:none;}.cls-3,.cls-5,.cls-6{stroke:#ff5d00;stroke-miterlimit:10;}.cls-3,.cls-5{stroke-width:2px;}.cls-4,.cls-6{fill:#fff;}</style></defs><title>bbox_logo</title><g id="Layer_2" data-name="Layer 2"><g id="Layer_1-2" data-name="Layer 1"><rect class="cls-1" width="328" height="148"/><path class="cls-2" d="M128.51,71.31a21.59,21.59,0,0,1-.33,3.82c-.05.34-.19.46-.52.53-1.66.28-3.31.58-5,.89l-3.41.63c-.51,3.06-1,6-1.52,9l.36.21,6.89,4.1c.23.14.43.22.37.6a24.23,24.23,0,0,1-5,11.28.78.78,0,0,1-1,.28c-2.49-.92-5-1.8-7.49-2.72-.34-.13-.51,0-.73.24-1.54,1.93-3.1,3.85-4.65,5.76a11,11,0,0,1-.82.85c1.42,2.53,2.81,5,4.22,7.52a.5.5,0,0,1,0,.69,24.15,24.15,0,0,1-10,7.26.72.72,0,0,1-1-.23c-1.71-2.07-3.46-4.08-5.18-6.14a.56.56,0,0,0-.81-.18,41.81,41.81,0,0,1-7.43,2.79.65.65,0,0,0-.59.76c0,2.64-.07,5.28-.07,7.92a.68.68,0,0,1-.58.78c-1.16.32-2.31.7-3.49,1s-2.25.39-3.38.56H74.43c-.81-.11-1.6-.24-2.4-.33-.36,0-.5-.19-.56-.56-.48-2.67-1-5.33-1.45-8-.06-.36-.18-.5-.56-.52a20.88,20.88,0,0,1-2.52-.28c-2-.34-4-.72-6-1.09a3.79,3.79,0,0,0-.29.46c-1.24,2.07-2.46,4.15-3.69,6.22-.63,1-.63,1-1.81.81a23.66,23.66,0,0,1-10.53-4.92.64.64,0,0,1-.22-.86c.26-.58.44-1.2.66-1.81.74-2.07,1.48-4.13,2.18-6.1l-7.07-5.82-7.38,4.16a.51.51,0,0,1-.69,0,24,24,0,0,1-7.29-10.11.59.59,0,0,1,.2-.8c2.07-1.74,4.11-3.5,6.19-5.22.33-.27.34-.47.16-.84a43.07,43.07,0,0,1-2.78-7.45.6.6,0,0,0-.69-.53c-2.7,0-5.39-.06-8.09-.1-.28,0-.48,0-.6-.34a25.24,25.24,0,0,1-1.59-8.63,22.36,22.36,0,0,1,.3-3.71c.08-.47.29-.6.71-.68,2.65-.46,5.3-1,8-1.43.34-.06.4-.21.44-.52.19-1.61.39-3.22.64-4.81.2-1.24.52-2.46.79-3.7l-.6-.36c-2.24-1.34-4.5-2.67-6.75-4-.21-.13-.44-.21-.38-.59a24.24,24.24,0,0,1,5-11.24.83.83,0,0,1,1.12-.33c2.47.91,5,1.78,7.44,2.69a.56.56,0,0,0,.78-.26c.68-1,1.39-2,2.15-2.89,1.05-1.27,2.16-2.48,3.27-3.73L36,33.41a23.92,23.92,0,0,1,10.44-7.63c.31-.12.47,0,.66.22l2.24,2.62c1.11,1.32,2.23,2.65,3.34,3.95a2.48,2.48,0,0,0,.27-.08,44.33,44.33,0,0,1,7.82-2.93c.35-.09.41-.27.41-.59,0-2.72.08-5.44.09-8.15a.57.57,0,0,1,.41-.63,25.12,25.12,0,0,1,8.56-1.58,22.31,22.31,0,0,1,3.79.33.61.61,0,0,1,.6.59c.46,2.66,1,5.33,1.44,8,0,.34.17.44.52.5,1.81.22,3.63.47,5.43.76,1,.17,2,.43,3.08.66q2.2-3.69,4.37-7.36c.15-.25.27-.41.65-.34a24.16,24.16,0,0,1,11.32,5.06.66.66,0,0,1,.23.86c-.91,2.5-1.79,5-2.7,7.49a.64.64,0,0,0,.26.88c1.87,1.48,3.72,3,5.58,4.52.34.28.65.61,1,.91l7.46-4.19c.26-.14.45-.26.74,0a24,24,0,0,1,7.28,10,.64.64,0,0,1-.22.86C119,49.92,117,51.68,114.9,53.4a.57.57,0,0,0-.17.81,40.18,40.18,0,0,1,2.8,7.44.66.66,0,0,0,.76.58c2.67,0,5.32.06,8,.08.29,0,.52,0,.66.37A25.47,25.47,0,0,1,128.51,71.31Zm-24.92,2.8A30.52,30.52,0,1,0,73,104.57,30.58,30.58,0,0,0,103.59,74.11Z"/><path class="cls-3" d="M77.37,129.5H74.43"/><path class="cls-3" d="M77.37,129.5c1.13-.17,2.27-.3,3.38-.56s2.33-.65,3.49-1a.68.68,0,0,0,.58-.78c0-2.64.07-5.28.07-7.92a.65.65,0,0,1,.59-.76,41.81,41.81,0,0,0,7.43-2.79.56.56,0,0,1,.81.18C95.44,118,97.19,120,98.9,122a.72.72,0,0,0,1,.23,24.15,24.15,0,0,0,10-7.26.5.5,0,0,0,0-.69c-1.41-2.49-2.8-5-4.22-7.52a11,11,0,0,0,.82-.85c1.55-1.91,3.11-3.83,4.65-5.76.22-.29.39-.37.73-.24,2.5.92,5,1.8,7.49,2.72a.78.78,0,0,0,1-.28,24.23,24.23,0,0,0,5-11.28c.06-.38-.14-.46-.37-.6l-6.89-4.1-.36-.21c.5-3,1-6,1.52-9l3.41-.63c1.64-.31,3.29-.61,5-.89.33-.07.47-.19.52-.53a21.59,21.59,0,0,0,.33-3.82,25.47,25.47,0,0,0-1.58-8.63c-.14-.37-.37-.37-.66-.37-2.66,0-5.31-.08-8-.08a.66.66,0,0,1-.76-.58,40.18,40.18,0,0,0-2.8-7.44.57.57,0,0,1,.17-.81c2.08-1.72,4.12-3.48,6.19-5.21a.64.64,0,0,0,.22-.86,24,24,0,0,0-7.28-10c-.29-.26-.48-.14-.74,0l-7.46,4.19c-.33-.3-.64-.63-1-.91-1.86-1.52-3.71-3-5.58-4.52a.64.64,0,0,1-.26-.88c.91-2.49,1.79-5,2.7-7.49a.66.66,0,0,0-.23-.86,24.16,24.16,0,0,0-11.32-5.06c-.38-.07-.5.09-.65.34q-2.16,3.68-4.37,7.36c-1-.23-2-.49-3.08-.66-1.8-.29-3.62-.54-5.43-.76-.35-.06-.47-.16-.52-.5-.47-2.67-1-5.34-1.44-8a.61.61,0,0,0-.6-.59,22.31,22.31,0,0,0-3.79-.33,25.12,25.12,0,0,0-8.56,1.58.57.57,0,0,0-.41.63c0,2.71-.07,5.43-.09,8.15,0,.32-.06.5-.41.59A44.33,44.33,0,0,0,53,32.49a2.48,2.48,0,0,1-.27.08c-1.11-1.3-2.23-2.63-3.34-3.95L47.14,26c-.19-.23-.35-.34-.66-.22A23.92,23.92,0,0,0,36,33.41l4.42,7.86c-1.11,1.25-2.22,2.46-3.27,3.73-.76.93-1.47,1.91-2.15,2.89a.56.56,0,0,1-.78.26c-2.48-.91-5-1.78-7.44-2.69a.83.83,0,0,0-1.12.33,24.24,24.24,0,0,0-5,11.24c-.06.38.17.46.38.59,2.25,1.33,4.51,2.66,6.75,4l.6.36c-.27,1.24-.59,2.46-.79,3.7-.25,1.59-.45,3.2-.64,4.81,0,.31-.1.46-.44.52-2.65.46-5.3,1-7.95,1.43-.42.08-.63.21-.71.68a22.36,22.36,0,0,0-.3,3.71,25.24,25.24,0,0,0,1.59,8.63c.12.33.32.34.6.34,2.7,0,5.39.09,8.09.1a.6.6,0,0,1,.69.53,43.07,43.07,0,0,0,2.78,7.45c.18.37.17.57-.16.84-2.08,1.72-4.12,3.48-6.19,5.22a.59.59,0,0,0-.2.8,24,24,0,0,0,7.29,10.11.51.51,0,0,0,.69,0l7.38-4.16,7.07,5.82c-.7,2-1.44,4-2.18,6.1-.22.61-.4,1.23-.66,1.81a.64.64,0,0,0,.22.86,23.66,23.66,0,0,0,10.53,4.92c1.18.24,1.18.24,1.81-.81,1.23-2.07,2.45-4.15,3.69-6.22a3.79,3.79,0,0,1,.29-.46c2,.37,4,.75,6,1.09a20.88,20.88,0,0,0,2.52.28c.38,0,.5.16.56.52.48,2.67,1,5.33,1.45,8,.06.37.2.52.56.56.8.09,1.59.22,2.4.33"/><path class="cls-4" d="M44.11,57c-.48-.27-.87,0-.87.5v33a1.91,1.91,0,0,0,.87,1.5l28.57,16.5a2,2,0,0,0,1.74,0L103,92a1.92,1.92,0,0,0,.86-1.5v-33c0-.55-.39-.77-.86-.5L74.42,73.5a2,2,0,0,1-1.74,0Z"/><path class="cls-3" d="M44.11,57c-.48-.27-.87,0-.87.5v33a1.91,1.91,0,0,0,.87,1.5l28.57,16.5a2,2,0,0,0,1.74,0L103,92a1.92,1.92,0,0,0,.86-1.5v-33c0-.55-.39-.77-.86-.5L74.42,73.5a2,2,0,0,1-1.74,0Z"/><path class="cls-4" d="M44.11,56a.53.53,0,0,0,0,1L72.68,73.5a2,2,0,0,0,1.74,0L103,57a.53.53,0,0,0,0-1L74.42,39.5a2,2,0,0,0-1.74,0Z"/><path class="cls-3" d="M44.11,56a.53.53,0,0,0,0,1L72.68,73.5a2,2,0,0,0,1.74,0L103,57a.53.53,0,0,0,0-1L74.42,39.5a2,2,0,0,0-1.74,0Z"/><line class="cls-5" x1="73.55" y1="74" x2="73.55" y2="109"/><path class="cls-6" d="M162,77.41a7.89,7.89,0,0,1,1.55,4.82q0,5.38-3.52,7.9a14.79,14.79,0,0,1-8.81,2.52H139.44V57.32h10.37q5.61,0,8.83,2.28a7.59,7.59,0,0,1,3.21,6.6,9.35,9.35,0,0,1-1.1,4.63A8.38,8.38,0,0,1,157.63,74,11.31,11.31,0,0,1,162,77.41ZM146.4,71.77h4.22a3.79,3.79,0,0,0,3-1.18,4.19,4.19,0,0,0,1.05-2.9A3.24,3.24,0,0,0,153.46,65a5.26,5.26,0,0,0-3.32-.94H146.4Zm8.42,13.41a3.27,3.27,0,0,0,1.51-3q0-3.74-6-3.74h-4v7.68h4.46A7.11,7.11,0,0,0,154.82,85.18Z"/><path class="cls-6" d="M176.11,54.78V92.65h-6.72V54.78Z"/><path class="cls-6" d="M182.9,76.14a10.6,10.6,0,0,1,4.27-4,13.13,13.13,0,0,1,6.27-1.47,12.59,12.59,0,0,1,6.17,1.47,10.28,10.28,0,0,1,4.1,4,11.45,11.45,0,0,1,1.44,5.76,11.71,11.71,0,0,1-1.44,5.8,10.27,10.27,0,0,1-4.1,4.06,12.8,12.8,0,0,1-6.27,1.46,13.61,13.61,0,0,1-6.21-1.36,10.14,10.14,0,0,1-4.23-3.92,11.57,11.57,0,0,1-1.51-6A11,11,0,0,1,182.9,76.14Zm6.7,10a4.62,4.62,0,0,0,3.65,1.65A4.7,4.7,0,0,0,197,86.12a6.89,6.89,0,0,0,0-8.35,4.7,4.7,0,0,0-3.72-1.63,4.62,4.62,0,0,0-3.65,1.65,6.71,6.71,0,0,0,0,8.31Z"/><path class="cls-6" d="M224.76,92.55a13.28,13.28,0,0,1-4.11.67q-5.46,0-8.66-3a10.52,10.52,0,0,1-3.19-8.13,10.94,10.94,0,0,1,1.56-5.88,10.42,10.42,0,0,1,4.1-3.84,11.72,11.72,0,0,1,5.47-1.32,12.63,12.63,0,0,1,8.5,2.78l-3.26,4.32a7.26,7.26,0,0,0-4.61-1.63A4.71,4.71,0,0,0,217,78.15a5.69,5.69,0,0,0-1.46,4,5.82,5.82,0,0,0,9.36,4.41l3.36,4.23A11.14,11.14,0,0,1,224.76,92.55Z"/><path class="cls-6" d="M253.13,71.94a9.51,9.51,0,0,1,3.62,3.81,12.36,12.36,0,0,1,1.34,6,12.12,12.12,0,0,1-1.48,6.08,10.58,10.58,0,0,1-4,4,10.82,10.82,0,0,1-5.42,1.41,9.76,9.76,0,0,1-7.06-2.68v2.11h-6.72V54.78h6.67V73.11a11.08,11.08,0,0,1,3.41-1.8,14.49,14.49,0,0,1,4.61-.69A9.86,9.86,0,0,1,253.13,71.94Zm-4.66,14.85a5.65,5.65,0,0,0,2-2.13,6.09,6.09,0,0,0,.77-3,5.62,5.62,0,0,0-1.63-4.13,5.36,5.36,0,0,0-3.94-1.63,6.5,6.5,0,0,0-3.46.91,5.07,5.07,0,0,0-2.11,2.45v5.13a5.88,5.88,0,0,0,5.57,3.17A5.27,5.27,0,0,0,248.47,86.79Z"/><path class="cls-6" d="M263.25,76.14a10.56,10.56,0,0,1,4.28-4,13.06,13.06,0,0,1,6.26-1.47A12.59,12.59,0,0,1,280,72.13a10.28,10.28,0,0,1,4.1,4,11.45,11.45,0,0,1,1.44,5.76,11.71,11.71,0,0,1-1.44,5.8,10.27,10.27,0,0,1-4.1,4.06,12.8,12.8,0,0,1-6.27,1.46,13.61,13.61,0,0,1-6.21-1.36,10.14,10.14,0,0,1-4.23-3.92,11.67,11.67,0,0,1-1.51-6A11.1,11.1,0,0,1,263.25,76.14Zm6.7,10a4.64,4.64,0,0,0,3.65,1.65,4.7,4.7,0,0,0,3.72-1.63,6.89,6.89,0,0,0,0-8.35,4.7,4.7,0,0,0-3.72-1.63A4.64,4.64,0,0,0,270,77.79a6.71,6.71,0,0,0,0,8.31Z"/><path class="cls-6" d="M303.26,92.65l-4.85-6.29L294,92.65h-6.67l7.77-10.56-8-10.42h8.25l4.61,6,3.6-6h6.67l-7.2,10,8.35,11Z"/></g></g></svg>