<svg xmlns="http://www.w3.org/2000/svg" xmlns:xlink="http://www.w3.org/1999/xlink" viewBox="0 0 120 50"><defs><style>.cls-1{fill:url(#linear-gradient);}.cls-2,.cls-5{fill:#3fa9f5;}.cls-3{fill:none;}.cls-3,.cls-5,.cls-6{stroke:#ff5d00;stroke-miterlimit:10;}.cls-3,.cls-5{stroke-width:0.68px;}.cls-4,.cls-6{fill:#fff;}.cls-6{stroke-width:0.34px;}</style><linearGradient id="linear-gradient" y1="25" x2="120" y2="25" gradientUnits="userSpaceOnUse"><stop offset="0" stop-color="#0071b3"/><stop offset="0.29" stop-color="#0065a1"/><stop offset="0.89" stop-color="#004771"/><stop offset="1" stop-color="#004167"/></linearGradient></defs><title>footer_bblogo</title><g id="Layer_2" data-name="Layer 2"><g id="Layer_1-2" data-name="Layer 1"><rect class="cls-1" width="120" height="50"/><path class="cls-2" d="M51.73,24.09a8,8,0,0,1-.11,1.29.19.19,0,0,1-.18.18c-.56.09-1.12.2-1.67.3l-1.15.21c-.18,1-.35,2-.52,3.05l.12.07,2.33,1.39c.08.05.15.07.13.2A8.18,8.18,0,0,1,49,34.59a.27.27,0,0,1-.35.1l-2.53-.92c-.12-.05-.17,0-.25.08l-1.57,1.94a1.92,1.92,0,0,1-.28.29c.48.86,1,1.7,1.43,2.54a.16.16,0,0,1,0,.23,8.17,8.17,0,0,1-3.37,2.46.27.27,0,0,1-.33-.08c-.58-.7-1.17-1.38-1.75-2.07a.18.18,0,0,0-.27-.06,15.18,15.18,0,0,1-2.51.94c-.16,0-.2.1-.2.25,0,.9,0,1.79,0,2.68a.22.22,0,0,1-.2.26c-.39.11-.78.24-1.18.33s-.76.13-1.14.19h-1l-.81-.11c-.12,0-.16-.07-.19-.19L32,40.75c0-.12-.06-.17-.19-.18a8.08,8.08,0,0,1-.86-.09l-2-.37-.1.15-1.24,2.1c-.21.36-.21.36-.61.28A8,8,0,0,1,23.39,41c-.11-.1-.13-.17-.07-.29s.14-.41.22-.62c.25-.69.5-1.39.73-2.06l-2.39-2-2.49,1.4a.17.17,0,0,1-.23,0A8.18,8.18,0,0,1,16.69,34a.21.21,0,0,1,.07-.27L18.85,32c.12-.09.12-.16.06-.28A14.14,14.14,0,0,1,18,29.2c0-.14-.09-.18-.23-.18-.92,0-1.83,0-2.74,0-.09,0-.16,0-.2-.12A8.61,8.61,0,0,1,14.26,26a6.71,6.71,0,0,1,.11-1.26c0-.16.09-.2.23-.23.9-.15,1.8-.32,2.69-.48.12,0,.14-.07.15-.18.06-.54.13-1.08.22-1.62s.17-.83.26-1.25l-.2-.12-2.28-1.36c-.07,0-.15-.06-.13-.19A8.22,8.22,0,0,1,17,15.47a.28.28,0,0,1,.38-.11l2.51.91a.2.2,0,0,0,.27-.09c.23-.33.47-.66.73-1s.72-.84,1.1-1.26l-1.49-2.65A8,8,0,0,1,24,8.71a.18.18,0,0,1,.23.07l.75.89L26.12,11l.09,0a14.74,14.74,0,0,1,2.64-1c.12,0,.14-.1.14-.2C29,8.87,29,8,29,7c0-.11,0-.17.14-.21a8.53,8.53,0,0,1,2.89-.53,7.9,7.9,0,0,1,1.28.11.21.21,0,0,1,.21.2c.15.9.32,1.8.48,2.7,0,.12.06.15.18.17.61.08,1.22.16,1.83.26.35,0,.7.14,1,.22l1.47-2.49a.18.18,0,0,1,.22-.11,8.09,8.09,0,0,1,3.82,1.71.21.21,0,0,1,.08.29c-.31.84-.6,1.69-.91,2.53a.22.22,0,0,0,.09.3l1.88,1.52c.12.1.22.21.33.31l2.53-1.42c.08,0,.15-.08.25,0A8.07,8.07,0,0,1,49.29,16a.21.21,0,0,1-.07.29L47.13,18c-.1.09-.12.15-.06.27a14.18,14.18,0,0,1,1,2.52c0,.15.1.19.25.2l2.7,0c.1,0,.18,0,.22.13A8.61,8.61,0,0,1,51.73,24.09ZM43.31,25A10.31,10.31,0,1,0,33,35.33,10.33,10.33,0,0,0,43.31,25Z"/><path class="cls-3" d="M34.45,43.75h-1"/><path class="cls-3" d="M34.45,43.75c.38-.06.77-.1,1.14-.19s.79-.22,1.18-.33A.22.22,0,0,0,37,43c0-.89,0-1.78,0-2.68,0-.15,0-.22.2-.25a15.18,15.18,0,0,0,2.51-.94.18.18,0,0,1,.27.06c.58.69,1.17,1.37,1.75,2.07a.27.27,0,0,0,.33.08,8.17,8.17,0,0,0,3.37-2.46.16.16,0,0,0,0-.23c-.48-.84-1-1.68-1.43-2.54a1.92,1.92,0,0,0,.28-.29l1.57-1.94c.08-.1.13-.13.25-.08l2.53.92a.27.27,0,0,0,.35-.1,8.18,8.18,0,0,0,1.7-3.81c0-.13,0-.15-.13-.2l-2.33-1.39-.12-.07c.17-1,.34-2,.52-3.05l1.15-.21c.55-.1,1.11-.21,1.67-.3a.19.19,0,0,0,.18-.18,8,8,0,0,0,.11-1.29,8.61,8.61,0,0,0-.54-2.91c0-.13-.12-.13-.22-.13l-2.7,0c-.15,0-.21-.05-.25-.2a14.18,14.18,0,0,0-1-2.52c-.06-.12,0-.18.06-.27l2.09-1.76a.21.21,0,0,0,.07-.29,8.07,8.07,0,0,0-2.45-3.4c-.1-.08-.17,0-.25,0L44.06,14c-.11-.1-.21-.21-.33-.31l-1.88-1.52a.22.22,0,0,1-.09-.3c.31-.84.6-1.69.91-2.53a.21.21,0,0,0-.08-.29,8.09,8.09,0,0,0-3.82-1.71.18.18,0,0,0-.22.11L37.08,10c-.35-.08-.7-.17-1-.22-.61-.1-1.22-.18-1.83-.26-.12,0-.16-.05-.18-.17-.16-.9-.33-1.8-.48-2.7a.21.21,0,0,0-.21-.2,7.9,7.9,0,0,0-1.28-.11,8.53,8.53,0,0,0-2.89.53c-.11,0-.13.1-.14.21,0,.92,0,1.84,0,2.76,0,.1,0,.17-.14.2a14.74,14.74,0,0,0-2.64,1l-.09,0L25,9.67l-.75-.89A.18.18,0,0,0,24,8.71a8,8,0,0,0-3.52,2.58L22,13.94c-.38.42-.75.83-1.1,1.26s-.5.65-.73,1a.2.2,0,0,1-.27.09l-2.51-.91a.28.28,0,0,0-.38.11,8.22,8.22,0,0,0-1.68,3.8c0,.13.06.15.13.19l2.28,1.36.2.12c-.09.42-.2.83-.26,1.25s-.16,1.08-.22,1.62c0,.11,0,.16-.15.18-.89.16-1.79.33-2.69.48-.14,0-.21.07-.23.23A6.71,6.71,0,0,0,14.26,26a8.61,8.61,0,0,0,.54,2.91c0,.11.11.12.2.12.91,0,1.82,0,2.74,0,.14,0,.19,0,.23.18a14.14,14.14,0,0,0,.94,2.52c.06.12.06.19-.06.28l-2.09,1.76a.21.21,0,0,0-.07.27,8.18,8.18,0,0,0,2.47,3.42.17.17,0,0,0,.23,0l2.49-1.4,2.39,2c-.23.67-.48,1.37-.73,2.06-.08.21-.14.42-.22.62s0,.19.07.29A8,8,0,0,0,27,42.64c.4.08.4.08.61-.28l1.24-2.1.1-.15,2,.37a8.08,8.08,0,0,0,.86.09c.13,0,.17.06.19.18l.48,2.7c0,.12.07.18.19.19l.81.11"/><path class="cls-4" d="M23.21,19.26c-.16-.1-.29,0-.29.17V30.57a.64.64,0,0,0,.29.51l9.66,5.58a.66.66,0,0,0,.58,0l9.66-5.58a.64.64,0,0,0,.29-.51V19.43c0-.19-.13-.27-.29-.17l-9.66,5.57a.66.66,0,0,1-.58,0Z"/><path class="cls-3" d="M23.21,19.26c-.16-.1-.29,0-.29.17V30.57a.64.64,0,0,0,.29.51l9.66,5.58a.66.66,0,0,0,.58,0l9.66-5.58a.64.64,0,0,0,.29-.51V19.43c0-.19-.13-.27-.29-.17l-9.66,5.57a.66.66,0,0,1-.58,0Z"/><path class="cls-4" d="M23.21,18.92c-.16.09-.16.24,0,.34l9.66,5.57a.66.66,0,0,0,.58,0l9.66-5.57c.16-.1.16-.25,0-.34l-9.66-5.58a.66.66,0,0,0-.58,0Z"/><path class="cls-3" d="M23.21,18.92c-.16.09-.16.24,0,.34l9.66,5.57a.66.66,0,0,0,.58,0l9.66-5.57c.16-.1.16-.25,0-.34l-9.66-5.58a.66.66,0,0,0-.58,0Z"/><line class="cls-5" x1="33.16" y1="25" x2="33.16" y2="36.82"/><path class="cls-6" d="M63,26.15a2.65,2.65,0,0,1,.53,1.63,3.07,3.07,0,0,1-1.19,2.67,5,5,0,0,1-3,.85h-4V19.36h3.5a5,5,0,0,1,3,.78A2.54,2.54,0,0,1,63,22.36a3.17,3.17,0,0,1-.37,1.57A2.82,2.82,0,0,1,61.56,25,3.73,3.73,0,0,1,63,26.15Zm-5.26-1.9H59.2a1.29,1.29,0,0,0,1-.4,1.41,1.41,0,0,0,.36-1,1.1,1.1,0,0,0-.41-.92A1.78,1.78,0,0,0,59,21.64H57.77Zm2.85,4.53a1.12,1.12,0,0,0,.51-1q0-1.26-2-1.26H57.77v2.59h1.51A2.44,2.44,0,0,0,60.62,28.78Z"/><path class="cls-6" d="M67.81,18.51V31.3H65.54V18.51Z"/><path class="cls-6" d="M70.1,25.72a3.57,3.57,0,0,1,1.45-1.35,4.41,4.41,0,0,1,2.11-.5,4.28,4.28,0,0,1,2.09.5,3.45,3.45,0,0,1,1.38,1.35,3.82,3.82,0,0,1,.49,2,3.91,3.91,0,0,1-.49,2A3.43,3.43,0,0,1,75.75,31a4.34,4.34,0,0,1-2.12.49,4.57,4.57,0,0,1-2.1-.46,3.44,3.44,0,0,1-1.43-1.32,3.91,3.91,0,0,1-.51-2A3.73,3.73,0,0,1,70.1,25.72Zm2.26,3.37a1.59,1.59,0,0,0,1.24.56,1.57,1.57,0,0,0,1.25-.56,2,2,0,0,0,.48-1.41,2.08,2.08,0,0,0-.48-1.41,1.67,1.67,0,0,0-2.49,0,2.07,2.07,0,0,0-.48,1.4A2.1,2.1,0,0,0,72.36,29.09Z"/><path class="cls-6" d="M84.24,31.27a4.51,4.51,0,0,1-1.38.22,4.16,4.16,0,0,1-2.93-1,3.56,3.56,0,0,1-1.08-2.75,3.72,3.72,0,0,1,.53-2,3.51,3.51,0,0,1,1.38-1.3A4.07,4.07,0,0,1,82.61,24a4.24,4.24,0,0,1,2.87.94l-1.1,1.46a2.42,2.42,0,0,0-1.56-.55,1.59,1.59,0,0,0-1.2.53,1.93,1.93,0,0,0-.5,1.35,1.83,1.83,0,0,0,.54,1.35,1.87,1.87,0,0,0,1.39.55,1.84,1.84,0,0,0,1.23-.41l1.14,1.43A3.74,3.74,0,0,1,84.24,31.27Z"/><path class="cls-6" d="M93.83,24.3a3.23,3.23,0,0,1,1.22,1.29,4.2,4.2,0,0,1,.45,2,4,4,0,0,1-.5,2A3.53,3.53,0,0,1,93.66,31a3.79,3.79,0,0,1-1.84.47,3.31,3.31,0,0,1-2.38-.9v.71H87.17V18.51h2.25V24.7a3.79,3.79,0,0,1,1.15-.61,5.11,5.11,0,0,1,1.56-.23A3.42,3.42,0,0,1,93.83,24.3Zm-1.58,5a1.84,1.84,0,0,0,.69-.72,2,2,0,0,0,.26-1,1.88,1.88,0,0,0-.55-1.4,1.8,1.8,0,0,0-1.33-.55,2.18,2.18,0,0,0-1.17.31,1.69,1.69,0,0,0-.71.83v1.73a2,2,0,0,0,1.88,1.07A1.76,1.76,0,0,0,92.25,29.32Z"/><path class="cls-6" d="M97.25,25.72a3.61,3.61,0,0,1,1.44-1.35,4.45,4.45,0,0,1,2.12-.5,4.24,4.24,0,0,1,2.08.5,3.54,3.54,0,0,1,1.39,1.35,3.91,3.91,0,0,1,.48,2,4,4,0,0,1-.48,2A3.52,3.52,0,0,1,102.89,31a4.31,4.31,0,0,1-2.12.49,4.63,4.63,0,0,1-2.1-.46,3.42,3.42,0,0,1-1.42-1.32,3.91,3.91,0,0,1-.51-2A3.73,3.73,0,0,1,97.25,25.72Zm2.26,3.37a1.56,1.56,0,0,0,1.23.56,1.59,1.59,0,0,0,1.26-.56,2,2,0,0,0,.48-1.41,2.08,2.08,0,0,0-.48-1.41,1.61,1.61,0,0,0-1.26-.55,1.56,1.56,0,0,0-1.23.56,2.08,2.08,0,0,0-.49,1.4A2.1,2.1,0,0,0,99.51,29.09Z"/><path class="cls-6" d="M110.76,31.3l-1.63-2.12-1.5,2.12h-2.25L108,27.73l-2.71-3.52h2.79l1.56,2.05,1.21-2.05h2.26l-2.44,3.39,2.82,3.7Z"/></g></g></svg>